<mxfile host="app.diagrams.net" modified="2023-08-02T07:45:20.571Z" agent="Mozilla/5.0 (Windows NT 10.0; Win64; x64) AppleWebKit/537.36 (KHTML, like Gecko) Chrome/115.0.0.0 Safari/537.36" version="21.6.6" etag="HUomsYqKU7BU-JUuzWzQ" type="github">
  <diagram name="Page-1" id="M_n_VyH34VFep1l33P81">
    <mxGraphModel>
      <root>
        <mxCell id="0" />
        <mxCell id="1" parent="0" />
      </root>
    </mxGraphModel>
  </diagram>
</mxfile>
